{
  "accessors": [
    {
      "bufferView": 2,
      "componentType": 5126,
      "count": 568,
      "max": [
        1.0506819486618042,
        0.489764004945755,
        1.0895001888275146
      ],
      "min": [
        -1.0506819486618042,
        -0.24567663669586182,
        0.3883911967277527
      ],
      "type": "VEC3"
    },
    {
      "bufferView": 2,
      "byteOffset": 6816,
      "componentType": 5126,
      "count": 568,
      "max": [
        0.9671860933303833,
        0.9993535280227661,
        0.9980604648590088
      ],
      "min": [
        -0.9671859741210938,
        -0.9985014200210571,
        -0.9958407878875732
      ],
      "type": "VEC3"
    },
    {
      "bufferView": 1,
      "componentType": 5126,
      "count": 568,
      "max": [
        0.7597377896308899,
        0.9980079531669617
      ],
      "min": [
        0.001516442745923996,
        0.0019920319318771362
      ],
      "type": "VEC2"
    },
    {
      "bufferView": 0,
      "componentType": 5125,
      "count": 2952,
      "type": "SCALAR"
    },
    {
      "bufferView": 2,
      "byteOffset": 13632,
      "componentType": 5126,
      "count": 20214,
      "max": [
        0.9747357964515686,
        0.27859675884246826,
        1.0560754537582397
      ],
      "min": [
        -0.9747357964515686,
        -0.1978904753923416,
        0.48419812321662903
      ],
      "type": "VEC3"
    },
    {
      "bufferView": 2,
      "byteOffset": 256200,
      "componentType": 5126,
      "count": 20214,
      "max": [
        0.9963150024414063,
        0.999352216720581,
        0.9979997277259827
      ],
      "min": [
        -0.9964126348495483,
        -0.9997385144233704,
        -0.9998586773872375
      ],
      "type": "VEC3"
    },
    {
      "bufferView": 1,
      "byteOffset": 4544,
      "componentType": 5126,
      "count": 20214,
      "max": [
        0.7274792194366455,
        0.7786263823509216
      ],
      "min": [
        0.0,
        0.0
      ],
      "type": "VEC2"
    },
    {
      "bufferView": 0,
      "byteOffset": 11808,
      "componentType": 5125,
      "count": 37074,
      "type": "SCALAR"
    },
    {
      "bufferView": 2,
      "byteOffset": 498768,
      "componentType": 5126,
      "count": 402,
      "max": [
        -0.19174227118492126,
        0.7229909896850586,
        0.9363527894020081
      ],
      "min": [
        -0.7535639405250549,
        0.16116920113563538,
        0.37453120946884155
      ],
      "type": "VEC3"
    },
    {
      "bufferView": 2,
      "byteOffset": 503592,
      "componentType": 5126,
      "count": 402,
      "max": [
        1.0,
        1.0,
        1.0
      ],
      "min": [
        -1.0,
        -1.0,
        -1.0
      ],
      "type": "VEC3"
    },
    {
      "bufferView": 1,
      "byteOffset": 166256,
      "componentType": 5126,
      "count": 402,
      "max": [
        0.9737672805786133,
        0.9813226461410522
      ],
      "min": [
        0.013762027025222778,
        0.018677592277526855
      ],
      "type": "VEC2"
    },
    {
      "bufferView": 0,
      "byteOffset": 160104,
      "componentType": 5125,
      "count": 2280,
      "type": "SCALAR"
    },
    {
      "bufferView": 2,
      "byteOffset": 508416,
      "componentType": 5126,
      "count": 402,
      "max": [
        0.7535639405250549,
        0.7229909896850586,
        0.9363527894020081
      ],
      "min": [
        0.19174227118492126,
        0.16116920113563538,
        0.37453120946884155
      ],
      "type": "VEC3"
    },
    {
      "bufferView": 2,
      "byteOffset": 513240,
      "componentType": 5126,
      "count": 402,
      "max": [
        1.0,
        1.0,
        1.0
      ],
      "min": [
        -1.0,
        -1.0,
        -1.0
      ],
      "type": "VEC3"
    },
    {
      "bufferView": 1,
      "byteOffset": 169472,
      "componentType": 5126,
      "count": 402,
      "max": [
        0.9737672805786133,
        0.9813226461410522
      ],
      "min": [
        0.013762027025222778,
        0.018677592277526855
      ],
      "type": "VEC2"
    },
    {
      "bufferView": 0,
      "byteOffset": 169224,
      "componentType": 5125,
      "count": 2280,
      "type": "SCALAR"
    }
  ],
  "asset": {
    "extras": {
      "author": "Átila Becker (https://sketchfab.com/atilabecker)",
      "license": "CC-BY-4.0 (http://creativecommons.org/licenses/by/4.0/)",
      "source": "https://sketchfab.com/3d-models/delight-e13ffeacb87c4cd19e8065518ab7a00b",
      "title": "Delight"
    },
    "generator": "Sketchfab-12.68.0",
    "version": "2.0"
  },
  "bufferViews": [
    {
      "buffer": 0,
      "byteLength": 178344,
      "name": "floatBufferViews",
      "target": 34963
    },
    {
      "buffer": 0,
      "byteLength": 172688,
      "byteOffset": 178344,
      "byteStride": 8,
      "name": "floatBufferViews",
      "target": 34962
    },
    {
      "buffer": 0,
      "byteLength": 518064,
      "byteOffset": 351032,
      "byteStride": 12,
      "name": "floatBufferViews",
      "target": 34962
    }
  ],
  "buffers": [
    {
      "byteLength": 869096,
      "uri": "scene.bin"
    }
  ],
  "extensionsUsed": [
    "KHR_materials_clearcoat"
  ],
  "images": [
    {
      "uri": "textures/mouthMat_baseColor.png"
    },
    {
      "uri": "textures/eyes_mat_baseColor.png"
    }
  ],
  "materials": [
    {
      "doubleSided": true,
      "name": "mouthMat",
      "pbrMetallicRoughness": {
        "baseColorTexture": {
          "index": 0
        },
        "metallicFactor": 0.4
      }
    },
    {
      "emissiveFactor": [
        0.15554629298999997,
        0.19306906587,
        0.10914405564
      ],
      "name": "teethMat",
      "pbrMetallicRoughness": {
        "baseColorFactor": [
          0.7061058507,
          0.7494345424,
          0.5134785623,
          1.0
        ],
        "metallicFactor": 0.0,
        "roughnessFactor": 0.3797637195
      }
    },
    {
      "doubleSided": true,
      "extensions": {
        "KHR_materials_clearcoat": {
          "clearcoatFactor": 1.0,
          "clearcoatRoughnessFactor": 0.04
        }
      },
      "name": "eyes_mat",
      "pbrMetallicRoughness": {
        "baseColorTexture": {
          "index": 1
        },
        "metallicFactor": 0.0,
        "roughnessFactor": 0.0
      }
    }
  ],
  "meshes": [
    {
      "name": "polySurface3_mouthMat_0",
      "primitives": [
        {
          "attributes": {
            "NORMAL": 1,
            "POSITION": 0,
            "TEXCOORD_0": 2
          },
          "indices": 3,
          "material": 0,
          "mode": 4
        }
      ]
    },
    {
      "name": "polySurface158_teethMat_0",
      "primitives": [
        {
          "attributes": {
            "NORMAL": 5,
            "POSITION": 4,
            "TEXCOORD_0": 6
          },
          "indices": 7,
          "material": 1,
          "mode": 4
        }
      ]
    },
    {
      "name": "pSphere1_eyes_mat_0",
      "primitives": [
        {
          "attributes": {
            "NORMAL": 9,
            "POSITION": 8,
            "TEXCOORD_0": 10
          },
          "indices": 11,
          "material": 2,
          "mode": 4
        }
      ]
    },
    {
      "name": "pSphere2_eyes_mat_0",
      "primitives": [
        {
          "attributes": {
            "NORMAL": 13,
            "POSITION": 12,
            "TEXCOORD_0": 14
          },
          "indices": 15,
          "material": 2,
          "mode": 4
        }
      ]
    }
  ],
  "nodes": [
    {
      "children": [
        1
      ],
      "matrix": [
        1.0,
        0.0,
        0.0,
        0.0,
        0.0,
        2.220446049250313e-16,
        -1.0,
        0.0,
        0.0,
        1.0,
        2.220446049250313e-16,
        0.0,
        0.0,
        0.0,
        0.0,
        1.0
      ],
      "name": "Sketchfab_model"
    },
    {
      "children": [
        2
      ],
      "matrix": [
        1.0,
        0.0,
        0.0,
        0.0,
        0.0,
        0.0,
        1.0,
        0.0,
        0.0,
        -1.0,
        0.0,
        0.0,
        0.0,
        0.0,
        0.0,
        1.0
      ],
      "name": "9ddc0a5210f74979829bc8f0d3ffa133.fbx"
    },
    {
      "children": [
        3,
        5,
        7,
        9
      ],
      "name": "RootNode"
    },
    {
      "children": [
        4
      ],
      "name": "polySurface3"
    },
    {
      "mesh": 0,
      "name": "polySurface3_mouthMat_0"
    },
    {
      "children": [
        6
      ],
      "name": "polySurface158"
    },
    {
      "mesh": 1,
      "name": "polySurface158_teethMat_0"
    },
    {
      "children": [
        8
      ],
      "name": "pSphere1"
    },
    {
      "mesh": 2,
      "name": "pSphere1_eyes_mat_0"
    },
    {
      "children": [
        10
      ],
      "name": "pSphere2"
    },
    {
      "mesh": 3,
      "name": "pSphere2_eyes_mat_0"
    }
  ],
  "samplers": [
    {
      "magFilter": 9729,
      "minFilter": 9987,
      "wrapS": 10497,
      "wrapT": 10497
    }
  ],
  "scene": 0,
  "scenes": [
    {
      "name": "Sketchfab_Scene",
      "nodes": [
        0
      ]
    }
  ],
  "textures": [
    {
      "sampler": 0,
      "source": 0
    },
    {
      "sampler": 0,
      "source": 1
    }
  ]
}
