{
  "accessors": [
    {
      "bufferView": 2,
      "componentType": 5126,
      "count": 409,
      "max": [
        24.475757598876953,
        18.609825134277344,
        49.924415588378906
      ],
      "min": [
        -24.47574806213379,
        -16.17348289489746,
        16.720867156982422
      ],
      "type": "VEC3"
    },
    {
      "bufferView": 2,
      "byteOffset": 4908,
      "componentType": 5126,
      "count": 409,
      "max": [
        0.911881148815155,
        0.9996148347854614,
        0.9094423651695251
      ],
      "min": [
        -0.9118809700012207,
        -0.9997360706329346,
        -0.9022704362869263
      ],
      "type": "VEC3"
    },
    {
      "bufferView": 1,
      "componentType": 5126,
      "count": 409,
      "max": [
        0.991927981376648,
        0.9854940176010132
      ],
      "min": [
        0.03183700144290924,
        0.010545999743044376
      ],
      "type": "VEC2"
    },
    {
      "bufferView": 0,
      "componentType": 5125,
      "count": 1056,
      "type": "SCALAR"
    },
    {
      "bufferView": 2,
      "byteOffset": 9816,
      "componentType": 5126,
      "count": 1134,
      "max": [
        35.013458251953125,
        27.540691375732422,
        40.36574172973633
      ],
      "min": [
        -35.01343536376953,
        -19.939558029174805,
        -3.000000106112566e-06
      ],
      "type": "VEC3"
    },
    {
      "bufferView": 2,
      "byteOffset": 23424,
      "componentType": 5126,
      "count": 1134,
      "max": [
        1.0,
        1.0,
        0.9976725578308105
      ],
      "min": [
        -1.0,
        -1.0,
        -1.0
      ],
      "type": "VEC3"
    },
    {
      "bufferView": 1,
      "byteOffset": 3272,
      "componentType": 5126,
      "count": 1134,
      "max": [
        0.9837610125541687,
        0.9830930233001709
      ],
      "min": [
        0.019120000302791595,
        0.016752000898122787
      ],
      "type": "VEC2"
    },
    {
      "bufferView": 0,
      "byteOffset": 4224,
      "componentType": 5125,
      "count": 2562,
      "type": "SCALAR"
    },
    {
      "bufferView": 2,
      "byteOffset": 37032,
      "componentType": 5126,
      "count": 755,
      "max": [
        13.545530319213867,
        10.50141429901123,
        83.21468353271484
      ],
      "min": [
        -13.545516967773438,
        -16.434782028198242,
        41.833072662353516
      ],
      "type": "VEC3"
    },
    {
      "bufferView": 2,
      "byteOffset": 46092,
      "componentType": 5126,
      "count": 755,
      "max": [
        0.9987860321998596,
        0.9997974634170532,
        0.9994847178459167
      ],
      "min": [
        -0.9987860918045044,
        -0.9998643398284912,
        -0.9975585341453552
      ],
      "type": "VEC3"
    },
    {
      "bufferView": 1,
      "byteOffset": 12344,
      "componentType": 5126,
      "count": 755,
      "max": [
        0.9866690039634705,
        0.9916309714317322
      ],
      "min": [
        0.02184700034558773,
        0.012626999989151955
      ],
      "type": "VEC2"
    },
    {
      "bufferView": 0,
      "byteOffset": 14472,
      "componentType": 5125,
      "count": 2298,
      "type": "SCALAR"
    },
    {
      "bufferView": 2,
      "byteOffset": 55152,
      "componentType": 5126,
      "count": 283,
      "max": [
        33.47316360473633,
        11.454686164855957,
        38.26044464111328
      ],
      "min": [
        25.781097412109375,
        -23.820890426635742,
        10.019410133361816
      ],
      "type": "VEC3"
    },
    {
      "bufferView": 2,
      "byteOffset": 58548,
      "componentType": 5126,
      "count": 283,
      "max": [
        1.0,
        1.0,
        1.0
      ],
      "min": [
        -1.0,
        -1.0,
        -1.0
      ],
      "type": "VEC3"
    },
    {
      "bufferView": 1,
      "byteOffset": 18384,
      "componentType": 5126,
      "count": 283,
      "max": [
        0.9834589958190918,
        0.9897770285606384
      ],
      "min": [
        0.009208000265061855,
        0.008162000216543674
      ],
      "type": "VEC2"
    },
    {
      "bufferView": 0,
      "byteOffset": 23664,
      "componentType": 5125,
      "count": 681,
      "type": "SCALAR"
    },
    {
      "bufferView": 2,
      "byteOffset": 61944,
      "componentType": 5126,
      "count": 366,
      "max": [
        30.530317306518555,
        18.609825134277344,
        63.34492111206055
      ],
      "min": [
        -19.415241241455078,
        -32.11357879638672,
        7.7301201820373535
      ],
      "type": "VEC3"
    },
    {
      "bufferView": 2,
      "byteOffset": 66336,
      "componentType": 5126,
      "count": 366,
      "max": [
        0.999435544013977,
        1.0,
        0.9238544702529907
      ],
      "min": [
        -0.9994356632232666,
        -1.0,
        -0.9999784827232361
      ],
      "type": "VEC3"
    },
    {
      "bufferView": 1,
      "byteOffset": 20648,
      "componentType": 5126,
      "count": 366,
      "max": [
        0.986611008644104,
        0.9762560129165649
      ],
      "min": [
        0.01472300011664629,
        0.00974700041115284
      ],
      "type": "VEC2"
    },
    {
      "bufferView": 0,
      "byteOffset": 26388,
      "componentType": 5125,
      "count": 1146,
      "type": "SCALAR"
    }
  ],
  "asset": {
    "extras": {
      "author": "jackiebatteau (https://sketchfab.com/jackiebatteau)",
      "license": "CC-BY-4.0 (http://creativecommons.org/licenses/by/4.0/)",
      "source": "https://sketchfab.com/3d-models/play-station-2-kingdom-hearts-white-rabbit-136cf0ed4a4f47a6b3a7735bb53b51fc",
      "title": "Play Station 2 - Kingdom Hearts - White Rabbit"
    },
    "generator": "Sketchfab-16.14.0",
    "version": "2.0"
  },
  "bufferViews": [
    {
      "buffer": 0,
      "byteLength": 30972,
      "name": "floatBufferViews",
      "target": 34963
    },
    {
      "buffer": 0,
      "byteLength": 23576,
      "byteOffset": 30972,
      "byteStride": 8,
      "name": "floatBufferViews",
      "target": 34962
    },
    {
      "buffer": 0,
      "byteLength": 70728,
      "byteOffset": 54548,
      "byteStride": 12,
      "name": "floatBufferViews",
      "target": 34962
    }
  ],
  "buffers": [
    {
      "byteLength": 125276,
      "uri": "scene.bin"
    }
  ],
  "images": [
    {
      "uri": "textures/texture000_texture000.png_baseColor.png"
    },
    {
      "uri": "textures/texture001_texture001.png_baseColor.png"
    },
    {
      "uri": "textures/texture002_texture002.png_baseColor.png"
    },
    {
      "uri": "textures/texture003_texture003.png_baseColor.png"
    },
    {
      "uri": "textures/texture004_texture004.png_baseColor.png"
    }
  ],
  "materials": [
    {
      "doubleSided": true,
      "name": "texture000_texture000.png",
      "pbrMetallicRoughness": {
        "baseColorTexture": {
          "index": 0
        },
        "metallicFactor": 0.0,
        "roughnessFactor": 0.8434915419926713
      }
    },
    {
      "doubleSided": true,
      "name": "texture001_texture001.png",
      "pbrMetallicRoughness": {
        "baseColorTexture": {
          "index": 1
        },
        "metallicFactor": 0.0,
        "roughnessFactor": 0.8434915419926713
      }
    },
    {
      "doubleSided": true,
      "name": "texture002_texture002.png",
      "pbrMetallicRoughness": {
        "baseColorTexture": {
          "index": 2
        },
        "metallicFactor": 0.0,
        "roughnessFactor": 0.8434915419926713
      }
    },
    {
      "doubleSided": true,
      "name": "texture003_texture003.png",
      "pbrMetallicRoughness": {
        "baseColorTexture": {
          "index": 3
        },
        "metallicFactor": 0.0,
        "roughnessFactor": 0.8434915419926713
      }
    },
    {
      "doubleSided": true,
      "name": "texture004_texture004.png",
      "pbrMetallicRoughness": {
        "baseColorTexture": {
          "index": 4
        },
        "metallicFactor": 0.0,
        "roughnessFactor": 0.8434915419926713
      }
    }
  ],
  "meshes": [
    {
      "name": "Object_0",
      "primitives": [
        {
          "attributes": {
            "NORMAL": 1,
            "POSITION": 0,
            "TEXCOORD_0": 2
          },
          "indices": 3,
          "material": 0,
          "mode": 4
        }
      ]
    },
    {
      "name": "Object_1",
      "primitives": [
        {
          "attributes": {
            "NORMAL": 5,
            "POSITION": 4,
            "TEXCOORD_0": 6
          },
          "indices": 7,
          "material": 1,
          "mode": 4
        }
      ]
    },
    {
      "name": "Object_2",
      "primitives": [
        {
          "attributes": {
            "NORMAL": 9,
            "POSITION": 8,
            "TEXCOORD_0": 10
          },
          "indices": 11,
          "material": 2,
          "mode": 4
        }
      ]
    },
    {
      "name": "Object_3",
      "primitives": [
        {
          "attributes": {
            "NORMAL": 13,
            "POSITION": 12,
            "TEXCOORD_0": 14
          },
          "indices": 15,
          "material": 3,
          "mode": 4
        }
      ]
    },
    {
      "name": "Object_4",
      "primitives": [
        {
          "attributes": {
            "NORMAL": 17,
            "POSITION": 16,
            "TEXCOORD_0": 18
          },
          "indices": 19,
          "material": 4,
          "mode": 4
        }
      ]
    }
  ],
  "nodes": [
    {
      "children": [
        1
      ],
      "matrix": [
        1.0,
        0.0,
        0.0,
        0.0,
        0.0,
        2.220446049250313e-16,
        -1.0,
        0.0,
        0.0,
        1.0,
        2.220446049250313e-16,
        0.0,
        0.0,
        0.0,
        0.0,
        1.0
      ],
      "name": "Sketchfab_model"
    },
    {
      "children": [
        2,
        3,
        4,
        5,
        6
      ],
      "name": "WhiteRabbit.obj.cleaner.materialmerger.gles"
    },
    {
      "mesh": 0,
      "name": "Object_2"
    },
    {
      "mesh": 1,
      "name": "Object_3"
    },
    {
      "mesh": 2,
      "name": "Object_4"
    },
    {
      "mesh": 3,
      "name": "Object_5"
    },
    {
      "mesh": 4,
      "name": "Object_6"
    }
  ],
  "samplers": [
    {
      "magFilter": 9729,
      "minFilter": 9987,
      "wrapS": 10497,
      "wrapT": 10497
    }
  ],
  "scene": 0,
  "scenes": [
    {
      "name": "Sketchfab_Scene",
      "nodes": [
        0
      ]
    }
  ],
  "textures": [
    {
      "sampler": 0,
      "source": 0
    },
    {
      "sampler": 0,
      "source": 1
    },
    {
      "sampler": 0,
      "source": 2
    },
    {
      "sampler": 0,
      "source": 3
    },
    {
      "sampler": 0,
      "source": 4
    }
  ]
}
